<?xml version="1.0" standalone="no"?>
<!DOCTYPE svg PUBLIC "-//W3C//DTD SVG 20010904//EN"
 "http://www.w3.org/TR/2001/REC-SVG-20010904/DTD/svg10.dtd">
<svg version="1.0" xmlns="http://www.w3.org/2000/svg"
 width="284.000000pt" height="177.000000pt" viewBox="0 0 284.000000 177.000000"
 preserveAspectRatio="xMidYMid meet">
<metadata>
Created by potrace 1.16, written by Peter Selinger 2001-2019
</metadata>
<g transform="translate(0.000000,177.000000) scale(0.100000,-0.100000)"
fill="#000000" stroke="none">
<path d="M0 1283 c1 -347 4 -483 11 -470 6 10 8 25 5 33 -5 12 0 14 22 10 15
-3 53 -6 84 -8 97 -3 90 24 -9 37 -47 6 -54 9 -58 33 -3 15 -10 41 -16 59 -8
27 -6 38 16 73 14 22 35 50 46 61 20 20 18 39 -5 39 -8 0 -19 7 -26 15 -11 13
-11 20 0 40 7 13 18 21 24 19 7 -3 26 2 42 11 16 8 24 15 18 15 -6 0 -21 9
-34 20 l-23 20 34 1 c19 1 26 3 17 6 -20 5 -23 19 -7 29 6 3 15 1 19 -6 5 -8
16 -9 31 -5 22 7 22 8 4 21 -16 12 -17 14 -2 20 10 3 17 11 17 18 0 6 25 24
54 40 32 17 52 34 48 40 -3 6 5 4 19 -5 43 -29 87 -33 145 -13 60 20 69 39 24
49 -16 4 -30 11 -30 17 0 6 19 29 42 51 40 38 41 41 27 66 -11 20 -24 27 -52
29 -25 2 -40 9 -44 20 -11 29 -34 39 -97 41 -45 2 -65 7 -79 22 -18 19 -19 19
-55 -11 -43 -35 -66 -38 -89 -10 -10 11 -23 20 -30 20 -7 0 -13 9 -13 20 0 17
-7 20 -40 20 l-40 0 0 -487z"/>
<path d="M2193 1740 c-13 -15 -23 -32 -23 -37 0 -10 -94 -73 -109 -73 -6 0
-11 -4 -11 -10 0 -5 7 -10 15 -10 8 0 15 -6 15 -12 0 -8 52 -29 123 -51 67
-22 129 -46 139 -54 11 -10 39 -14 92 -14 62 0 76 -3 80 -17 3 -9 24 -27 46
-40 57 -32 47 -50 -37 -67 -40 -8 -43 -31 -9 -72 14 -16 28 -41 31 -55 4 -16
18 -31 36 -38 30 -13 40 -40 14 -40 -8 0 -15 -7 -15 -15 0 -9 7 -18 15 -21 8
-4 15 -16 15 -28 1 -43 47 -78 93 -69 22 4 27 2 27 -16 0 -16 -6 -21 -27 -21
l-27 0 22 -16 c12 -8 22 -24 22 -35 0 -13 7 -19 21 -19 20 0 21 -4 17 -49 -6
-61 -3 -66 45 -79 l37 -10 0 499 0 499 -312 -1 -313 0 -22 -29z"/>
<path d="M1349 1530 c0 -14 -3 -19 -6 -12 -10 25 -24 11 -18 -18 6 -26 4 -30
-15 -30 -15 0 -20 -5 -16 -15 3 -9 -6 -20 -27 -30 -18 -8 -41 -32 -53 -54
l-21 -39 23 -13 c32 -16 30 -33 -8 -92 -30 -47 -31 -50 -14 -63 11 -8 30 -11
47 -7 21 4 29 2 29 -8 1 -8 7 0 15 16 7 17 14 24 15 15 11 -73 7 -88 -26 -100
-16 -6 -21 -15 -17 -28 3 -14 -2 -21 -16 -25 -27 -7 -37 -34 -23 -58 14 -22
16 -71 3 -85 -5 -5 -17 -40 -25 -77 -19 -80 -18 -77 -7 -77 4 0 14 20 21 45 7
25 18 44 23 42 16 -5 19 -95 6 -152 -7 -27 -11 -52 -10 -54 2 -2 -3 -8 -11
-12 -10 -7 -10 -9 2 -9 9 -1 4 -7 -11 -15 -21 -11 -25 -21 -24 -47 2 -25 -5
-40 -29 -62 -25 -24 -28 -31 -15 -34 11 -2 15 -10 12 -22 -3 -12 -10 -17 -17
-13 -6 4 -3 -5 6 -19 12 -18 14 -28 6 -30 -8 -3 -8 -10 1 -26 10 -19 9 -22 -5
-22 -10 0 -14 -3 -10 -8 4 -4 11 -7 15 -7 4 0 15 -8 24 -17 19 -19 8 -32 -19
-21 -12 4 -15 3 -10 -5 4 -7 14 -12 22 -12 10 0 13 -8 10 -27 -2 -16 -5 -31
-5 -36 -1 -12 -61 22 -61 35 0 7 -7 2 -16 -10 -20 -29 -48 -30 -39 -2 6 19 4
18 -20 -4 -26 -24 -65 -26 -65 -2 0 6 -4 5 -9 -3 -6 -9 -29 -15 -64 -16 -29
-1 -58 -5 -64 -8 -16 -10 -24 4 -12 20 9 10 8 13 -1 13 -7 0 -21 -11 -32 -25
-16 -20 -23 -23 -34 -14 -11 9 -14 9 -14 0 0 -8 -5 -9 -19 -1 -12 6 -94 10
-197 10 -98 0 -175 2 -173 4 3 4 210 13 342 15 15 1 27 6 27 12 0 5 -4 8 -9 5
-5 -4 -22 -1 -38 5 -26 10 -27 12 -8 19 11 5 14 9 7 9 -7 1 -10 6 -7 11 6 10
-20 13 -80 11 -22 -1 -26 1 -15 7 17 11 283 25 415 22 111 -2 106 12 -7 17
-46 2 -95 5 -110 7 -16 2 -37 4 -48 5 -14 1 -22 10 -26 31 -8 38 -28 40 -22 1
3 -22 1 -27 -12 -24 -12 3 -16 12 -12 29 2 14 0 24 -7 24 -6 0 -11 -9 -11 -20
0 -11 -4 -20 -10 -20 -5 0 -10 9 -10 20 0 30 -1 34 -11 47 -7 7 -5 13 3 16 7
3 3 6 -9 6 -13 1 -22 -4 -20 -10 1 -6 -4 -14 -12 -17 -10 -3 -12 0 -8 12 4 9
2 16 -3 16 -6 0 -10 -4 -10 -10 0 -5 -7 -10 -15 -10 -9 0 -12 6 -9 15 4 10 0
15 -12 15 -17 1 -17 2 -2 10 9 6 14 18 11 29 -4 16 -10 18 -36 10 -44 -12 -43
-6 2 30 42 33 88 98 77 108 -3 4 -7 4 -9 2 -42 -58 -94 -110 -120 -118 -49
-15 -117 -12 -124 5 -5 13 -8 13 -29 -1 -21 -14 -27 -13 -58 2 -19 9 -33 19
-31 23 8 13 -12 30 -29 24 -11 -4 -13 -9 -7 -13 6 -4 2 -12 -9 -19 -18 -11
-20 -9 -20 23 0 29 -4 35 -17 33 -10 -2 -20 -14 -23 -28 -5 -23 -10 -25 -63
-28 -38 -2 -64 2 -78 11 -17 13 -18 15 -4 21 13 5 14 8 3 19 -10 11 -15 12
-25 1 -10 -10 -13 -79 -13 -293 l0 -281 891 0 891 0 -31 35 c-17 20 -31 40
-31 45 0 20 56 -12 79 -45 l24 -35 508 0 509 0 0 370 c0 359 -1 370 -19 361
-10 -6 -21 -8 -24 -4 -4 3 -12 1 -19 -4 -7 -6 -22 -13 -33 -16 -17 -3 -15 -6
13 -17 32 -12 32 -13 16 -31 -13 -15 -14 -19 -3 -19 11 0 11 -2 -1 -10 -23
-15 -28 -12 -25 16 2 21 -1 25 -16 21 -11 -3 -19 -1 -19 5 0 5 -5 6 -11 2 -8
-4 -7 -9 2 -15 7 -4 10 -11 6 -15 -4 -4 -2 -13 4 -21 9 -9 8 -17 0 -27 -11
-13 -15 -12 -30 2 -14 14 -14 19 -3 27 11 9 9 16 -10 38 -26 29 -44 36 -34 12
3 -8 1 -15 -4 -15 -6 0 -10 5 -10 10 0 6 -7 10 -16 10 -8 0 -12 -4 -9 -10 3
-5 -3 -10 -14 -10 -10 0 -22 6 -24 13 -4 8 -6 9 -6 0 -1 -6 6 -18 14 -27 8 -8
15 -23 15 -33 0 -10 14 -26 30 -35 17 -9 34 -28 39 -42 6 -13 20 -31 33 -40
34 -24 -1 -20 -42 5 -19 12 -38 27 -42 33 -5 7 -11 8 -15 1 -11 -14 -43 -18
-43 -5 0 5 -9 10 -20 10 -18 0 -25 10 -21 32 2 15 -28 -4 -33 -20 -2 -10 -4
-6 -3 8 2 24 0 25 -58 22 -67 -3 -84 -12 -59 -33 16 -12 17 -12 11 3 -5 15 0
17 43 15 28 -1 50 -4 50 -7 0 -11 -50 -34 -57 -27 -3 4 -12 2 -20 -4 -7 -6
-22 -9 -33 -6 -11 3 -20 1 -20 -4 0 -5 -12 -6 -27 -3 -25 5 -29 2 -40 -33 -6
-21 -8 -39 -3 -41 5 -2 6 -10 3 -18 -7 -18 1 -18 39 2 22 11 33 13 41 5 8 -8
-3 -24 -37 -57 -26 -25 -57 -49 -69 -54 -16 -6 5 -9 68 -11 88 -2 89 -2 30 -9
l-60 -7 74 -1 c72 -2 255 -22 249 -27 -5 -5 -210 -17 -267 -16 -30 1 -51 -2
-48 -6 4 -3 44 -6 89 -6 46 0 75 -2 65 -4 -10 -3 -40 -27 -67 -54 -27 -27 -52
-49 -56 -49 -5 0 12 20 36 45 24 24 42 46 39 48 -2 1 -22 0 -44 -4 -24 -4 -30
-7 -16 -8 13 0 21 -4 17 -8 -4 -4 -23 -6 -42 -4 -20 1 -34 -2 -34 -9 0 -7 -8
-9 -19 -5 -26 8 -57 -5 -39 -16 8 -5 -12 -9 -52 -10 -116 -3 -122 -4 -131 -22
-13 -23 -39 -22 -39 2 0 13 -7 19 -25 19 -13 0 -22 -4 -19 -9 5 -9 -20 -12
-123 -14 -46 -1 -63 3 -63 12 0 7 -6 13 -12 14 -7 0 -37 12 -67 27 -44 22 -56
34 -67 67 -8 24 -10 41 -4 43 6 2 7 15 4 28 -5 18 -1 31 14 44 11 11 19 27 17
37 -2 10 -11 71 -21 136 -17 113 -19 119 -49 137 -17 11 -40 29 -51 41 l-19
21 40 -21 c59 -31 73 -28 73 16 0 20 -4 48 -10 62 -5 14 -6 22 -2 18 11 -11
34 13 34 35 0 34 -32 119 -44 115 -7 -3 -12 12 -14 38 -3 53 -28 115 -46 115
-16 0 -26 30 -26 84 0 37 13 44 15 8 4 -56 6 -62 21 -62 11 0 14 5 9 18 -16
41 -18 112 -4 130 26 30 23 69 -8 110 -42 56 -52 77 -43 92 21 33 -26 42 -55
10 -25 -27 -36 -25 -62 13 -23 31 -23 31 -24 7z m46 -472 c3 -24 15 -99 26
-168 11 -69 26 -172 35 -230 9 -58 22 -139 29 -180 36 -199 49 -312 38 -328
-11 -19 -70 -27 -92 -13 -11 7 -11 13 3 32 18 27 21 65 5 75 -6 3 -9 18 -6 33
3 14 -1 53 -9 86 -7 33 -14 85 -14 116 0 30 -10 104 -21 165 -36 185 -63 407
-52 427 2 4 -1 7 -6 7 -6 0 -11 5 -11 10 0 6 15 10 34 10 33 0 35 -2 41 -42z"/>
</g>
</svg>
