<?xml version="1.0" standalone="no"?>
<!DOCTYPE svg PUBLIC "-//W3C//DTD SVG 20010904//EN"
 "http://www.w3.org/TR/2001/REC-SVG-20010904/DTD/svg10.dtd">
<svg version="1.0" xmlns="http://www.w3.org/2000/svg"
 width="300.000000pt" height="168.000000pt" viewBox="0 0 300.000000 168.000000"
 preserveAspectRatio="xMidYMid meet">

<g transform="translate(0.000000,168.000000) scale(0.100000,-0.100000)"
fill="#000000" stroke="none">
<path d="M1524 1512 c-19 -11 26 -142 49 -142 21 0 21 -1 -2 79 -18 65 -26 77
-47 63z"/>
<path d="M2348 1506 c-10 -7 -17 -15 -15 -17 1 -2 -2 -1 -7 3 -26 21 -79 -13
-58 -38 4 -5 0 -3 -8 3 -12 9 -20 8 -35 -4 -16 -13 -17 -15 -2 -10 30 11 19 0
-27 -26 -33 -18 -47 -22 -56 -13 -9 8 -11 8 -8 -3 2 -7 -3 -16 -11 -19 -9 -3
-11 0 -6 8 5 9 4 11 -4 6 -6 -4 -9 -12 -6 -17 4 -5 -3 -9 -13 -9 -11 0 -23 -7
-26 -16 -9 -24 -7 -28 9 -14 11 9 19 10 26 3 11 -11 2 -43 -13 -43 -6 0 -7 7
-4 16 3 9 2 12 -5 8 -6 -3 -8 -17 -4 -33 l7 -26 -22 25 -22 25 6 -35 c7 -35 7
-35 -11 -13 -17 20 -99 41 -87 22 3 -5 8 -7 12 -5 4 2 16 -2 27 -10 17 -13 14
-13 -30 -7 -28 3 -55 13 -62 22 -6 9 -15 12 -19 8 -5 -4 -2 -12 6 -18 11 -7 6
-8 -14 -3 -21 5 -27 4 -22 -5 4 -6 1 -11 -8 -11 -9 0 -16 5 -16 11 0 5 -4 8
-10 4 -5 -3 -37 -9 -72 -14 -35 -4 -72 -12 -82 -16 -13 -6 -17 -5 -12 3 7 11
-21 5 -76 -17 -26 -10 -40 -41 -18 -41 6 0 10 7 10 15 0 8 5 15 10 15 6 0 10
-4 10 -9 0 -5 10 -11 23 -13 17 -3 1 -15 -68 -51 -195 -101 -236 -125 -228
-130 4 -3 35 8 68 24 50 24 61 26 63 13 5 -19 -11 -31 -115 -85 -45 -24 -79
-48 -76 -53 3 -5 0 -7 -8 -4 -13 4 -39 -13 -39 -26 0 -8 112 46 129 63 16 14
71 37 84 33 4 -1 7 3 7 8 0 5 3 9 8 9 19 -3 33 2 27 11 -3 6 1 7 10 4 9 -4 23
3 35 17 35 43 21 10 -19 -44 -32 -43 -39 -62 -43 -109 -3 -33 -1 -58 5 -58 5
0 6 -15 3 -35 -6 -32 -5 -35 17 -35 14 0 44 7 67 15 49 17 73 19 47 4 -9 -6
-14 -15 -11 -21 4 -6 1 -14 -6 -18 -20 -12 -11 -111 11 -118 5 -2 9 -10 9 -17
0 -20 32 -35 58 -28 13 3 31 -3 48 -16 27 -21 24 -26 -21 -33 -11 -2 -22 -6
-25 -9 -3 -3 -34 -23 -69 -44 -36 -21 -74 -48 -84 -58 -16 -16 -24 -18 -38 -9
-12 8 -20 8 -24 2 -3 -6 -1 -10 5 -10 6 0 8 -5 5 -10 -4 -6 -10 -8 -15 -5 -10
6 -35 -23 -26 -32 3 -3 6 -1 6 5 0 7 5 12 11 12 7 0 8 -14 4 -42 -10 -61 -24
-82 -19 -29 2 24 1 41 -4 37 -13 -13 -18 -157 -5 -152 6 3 14 -5 18 -17 6 -19
8 -16 18 19 7 25 17 39 25 37 6 -3 12 -11 12 -19 0 -8 5 -14 11 -14 6 0 9 -7
5 -15 -8 -22 13 -18 33 6 16 20 27 22 132 22 63 0 102 2 88 4 -31 5 -81 53
-61 60 7 3 19 11 26 19 8 8 20 14 27 14 7 0 9 3 6 6 -4 4 27 30 68 59 41 28
72 55 67 60 -4 5 -1 5 5 1 7 -4 37 7 67 25 l55 33 -21 29 c-19 27 -19 29 -2
41 20 15 67 14 86 -2 36 -29 99 -14 153 36 42 39 31 18 -19 -35 -16 -18 -40
-33 -52 -33 -12 0 -27 -7 -35 -16 -7 -8 -26 -22 -43 -31 -17 -9 -35 -22 -41
-29 -5 -7 -19 -14 -30 -16 -11 -2 -24 -13 -30 -26 -8 -18 -15 -21 -37 -17 -23
6 -28 2 -39 -29 -7 -20 -16 -36 -20 -36 -7 0 -1 -191 7 -199 2 -2 9 10 15 27
7 21 18 32 30 32 12 0 16 -5 13 -15 -5 -12 2 -15 29 -15 27 0 36 -5 41 -22 l7
-23 9 22 c6 14 15 20 27 17 10 -3 27 2 38 11 11 9 14 13 7 10 -11 -6 -11 -3 0
14 14 24 30 29 22 7 -4 -10 2 -14 19 -12 18 1 23 6 19 19 -2 10 0 17 5 15 4
-2 33 24 63 57 30 33 67 70 82 83 27 23 28 23 28 4 0 -11 7 -23 16 -26 12 -5
15 -17 12 -57 l-3 -50 35 3 c34 3 35 4 53 73 9 39 18 95 20 126 1 42 6 56 17
55 9 -1 16 10 18 28 3 28 3 28 -14 11 -17 -17 -18 -16 -25 4 -9 23 13 75 26
63 5 -4 4 0 -1 8 -4 8 -9 22 -11 30 -1 8 -7 16 -13 18 -5 2 -7 9 -3 15 3 7 3
9 -2 5 -4 -4 -15 -2 -23 4 -11 10 -17 8 -28 -7 -13 -17 -14 -15 -14 26 0 25 5
50 11 56 9 9 7 10 -10 6 -11 -3 -21 -9 -21 -14 0 -5 -4 -9 -10 -9 -16 0 -12
18 10 40 11 11 26 17 35 14 9 -4 15 0 15 9 0 8 8 21 18 28 11 9 13 9 6 1 -8
-10 -3 -22 21 -47 17 -19 35 -35 40 -35 5 0 -2 11 -15 25 -13 14 -18 25 -12
25 6 0 13 -4 16 -9 3 -5 19 -11 35 -13 25 -4 28 -2 21 13 -16 29 2 30 28 1 16
-16 23 -20 19 -9 -3 9 -2 17 3 17 6 0 10 -5 10 -12 0 -6 9 -3 20 7 19 17 19
19 2 32 -9 8 -11 11 -4 8 11 -6 12 -3 3 14 -7 11 -14 21 -17 21 -3 0 -2 -5 2
-12 4 -7 3 -8 -5 -4 -6 4 -10 10 -7 14 2 4 0 16 -4 27 -7 18 -10 16 -30 -17
-12 -21 -27 -38 -33 -38 -7 0 -5 5 3 10 8 5 11 10 5 10 -5 0 -4 4 4 9 12 8 12
11 -1 25 -9 8 -18 12 -21 9 -8 -7 -20 43 -14 59 8 22 -22 68 -46 70 -12 0 -34
2 -50 3 -33 2 -46 13 -28 24 9 6 5 10 -14 13 -18 4 -23 2 -16 -5 7 -7 5 -14
-6 -23 -23 -16 -42 -7 -36 17 6 23 -4 24 -28 3 -9 -8 -20 -11 -23 -6 -10 16
71 64 121 73 89 16 121 30 126 56 3 15 0 23 -7 20 -6 -3 -11 7 -11 24 0 16 3
29 7 29 15 0 -4 28 -25 38 -15 7 -17 11 -6 11 9 1 16 7 16 15 0 11 -6 12 -24
5 -30 -11 -33 -11 -33 0 0 5 11 12 25 15 32 8 23 26 -12 26 -18 0 -24 4 -19
15 3 8 1 15 -4 15 -5 0 -7 7 -4 15 4 11 -1 15 -17 16 -18 1 -20 2 -6 6 23 6
17 25 -12 39 l-21 11 28 24 c15 13 24 21 19 17 -5 -3 -16 -4 -24 -1 -12 5 -12
7 -1 14 7 5 9 9 3 9 -5 -1 -18 -7 -27 -14z m-142 -111 c-26 -19 -42 -19 -26 0
7 8 20 15 29 15 13 -1 13 -3 -3 -15z m29 -11 c-9 -9 -19 -13 -23 -10 -3 4 0
11 8 16 24 15 33 11 15 -6z m-299 -138 c12 -13 10 -17 -16 -36 -18 -13 -30
-17 -30 -9 0 6 7 17 15 23 13 9 8 11 -24 11 -22 0 -37 -3 -35 -7 2 -3 -1 -10
-7 -14 -8 -4 -9 -3 -5 4 4 7 0 12 -11 13 -24 1 46 27 75 28 13 1 30 -5 38 -13z
m-266 -66 c0 -5 -5 -10 -11 -10 -5 0 -7 5 -4 10 3 6 8 10 11 10 2 0 4 -4 4
-10z m200 -5 c-10 -12 -10 -15 1 -15 10 0 10 -3 1 -12 -9 -9 -15 -10 -20 -2
-4 7 -16 14 -27 17 -15 4 -14 5 8 6 15 0 27 6 27 11 0 6 5 10 11 10 8 0 8 -5
-1 -15z m140 5 c0 -5 -7 -10 -15 -10 -8 0 -15 5 -15 10 0 6 7 10 15 10 8 0 15
-4 15 -10z m-540 -115 c0 -8 -4 -15 -10 -15 -5 0 -10 7 -10 15 0 8 5 15 10 15
6 0 10 -7 10 -15z m1005 -204 c-2 -2 -11 3 -19 12 -8 8 -12 17 -9 21 3 3 12
-2 19 -12 7 -9 11 -19 9 -21z m-121 -306 c-4 -8 -11 -15 -16 -15 -6 0 -5 6 2
15 7 8 14 15 16 15 2 0 1 -7 -2 -15z m71 6 c3 -5 1 -12 -5 -16 -5 -3 -10 1
-10 9 0 18 6 21 15 7z m9 -47 c3 -8 2 -12 -4 -9 -6 3 -10 10 -10 16 0 14 7 11
14 -7z m-4 -58 c0 -3 -4 -8 -10 -11 -5 -3 -10 -1 -10 4 0 6 5 11 10 11 6 0 10
-2 10 -4z m-290 -56 c0 -5 -4 -10 -10 -10 -5 0 -10 5 -10 10 0 6 5 10 10 10 6
0 10 -4 10 -10z m267 -42 c-3 -8 -6 -5 -6 6 -1 11 2 17 5 13 3 -3 4 -12 1 -19z
m-277 -88 c0 -11 -4 -20 -9 -20 -5 0 -7 9 -4 20 3 11 7 20 9 20 2 0 4 -9 4
-20z m-723 -72 c-3 -7 -5 -2 -5 12 0 14 2 19 5 13 2 -7 2 -19 0 -25z m710 10
c-3 -8 -6 -5 -6 6 -1 11 2 17 5 13 3 -3 4 -12 1 -19z"/>
<path d="M1570 1336 c0 -8 4 -17 8 -20 13 -8 35 11 28 23 -10 16 -36 14 -36
-3z"/>
<path d="M2514 914 c1 -16 7 -24 19 -24 9 0 17 -4 17 -10 0 -5 5 -10 11 -10 8
0 8 4 -1 15 -6 8 -9 18 -7 22 3 5 -5 13 -18 19 -20 10 -23 9 -21 -12z"/>
<path d="M1101 849 c-24 -11 -41 -22 -38 -25 3 -3 27 6 54 20 57 30 47 33 -16
5z"/>
<path d="M945 775 c-25 -16 -33 -25 -22 -25 10 0 23 5 30 10 7 6 21 17 32 25
33 24 3 16 -40 -10z"/>
<path d="M2620 749 c0 -5 5 -7 10 -4 6 3 10 8 10 11 0 2 -4 4 -10 4 -5 0 -10
-5 -10 -11z"/>
<path d="M502 523 c-6 -2 -10 -9 -6 -14 3 -5 -4 -22 -15 -37 -15 -21 -19 -44
-20 -102 0 -114 -1 -119 -11 -125 -5 -3 -7 -12 -4 -20 4 -8 1 -28 -4 -45 -10
-28 -10 -30 15 -30 26 0 26 1 7 15 -10 8 -14 15 -7 15 7 0 10 6 7 13 -5 14 31
103 45 112 13 8 21 -22 14 -55 -4 -22 -2 -30 8 -30 9 0 14 12 15 33 1 17 5 68
10 112 l9 80 40 20 c39 19 68 46 59 54 -2 2 -12 -3 -23 -13 -10 -9 -42 -19
-72 -23 -49 -6 -53 -5 -41 10 21 25 5 43 -26 30z m-7 -133 c3 -5 1 -10 -4 -10
-6 0 -11 5 -11 10 0 6 2 10 4 10 3 0 8 -4 11 -10z"/>
<path d="M533 194 c-7 -20 10 -37 33 -32 18 3 17 5 -4 25 -19 20 -24 21 -29 7z"/>
<path d="M1775 200 c3 -5 18 -10 32 -10 32 0 28 5 -10 14 -19 4 -26 3 -22 -4z"/>
<path d="M1180 170 l-115 -6 117 -2 c69 -1 119 2 123 8 3 6 3 9 -2 8 -4 -1
-60 -5 -123 -8z"/>
<path d="M663 163 c9 -2 25 -2 35 0 9 3 1 5 -18 5 -19 0 -27 -2 -17 -5z"/>
</g>
</svg>
