<svg width="16" height="21" viewBox="0 0 16 21" fill="none" xmlns="http://www.w3.org/2000/svg">
<path d="M11.5016 14.208L12.7718 12.0081C15.6055 7.09999 15.2409 2.93672 14.9643 1.41039C14.935 1.24485 14.834 1.10183 14.6898 1.01705C14.5446 0.932505 14.3706 0.916004 14.2116 0.971335C12.7382 1.48437 8.90801 3.22727 6.07173 8.13984L4.8013 10.3403L4.23698 10.3794C3.14884 10.4556 2.16894 11.0678 1.62318 12.0131L0.107221 14.6388C0.0174412 14.7943 0.0202523 14.9876 0.114564 15.1409C0.209756 15.294 0.381233 15.3818 0.56074 15.3695L2.38803 15.2526C2.90091 15.2202 3.41191 15.3391 3.85724 15.5962L4.82761 16.1565L4.09296 17.4289C3.95781 17.663 4.0379 17.9619 4.27143 18.0968L5.04839 18.5454C5.28192 18.6802 5.58084 18.6001 5.71599 18.366L6.45064 17.0935L7.42044 17.6535C7.86577 17.9106 8.22545 18.2929 8.45346 18.7552L9.26503 20.395C9.34413 20.5566 9.50596 20.6611 9.6861 20.6671C9.86601 20.6721 10.0349 20.5778 10.1246 20.4223L11.6406 17.7966C12.1857 16.8525 12.2253 15.6974 11.7485 14.7162L11.5016 14.208ZM10.1419 8.82732C9.33593 8.36201 9.05905 7.33044 9.52436 6.5245C9.98999 5.718 11.0215 5.44256 11.8274 5.90787C12.6328 6.37286 12.91 7.40387 12.4444 8.21037C11.9791 9.01631 10.9473 9.29231 10.1419 8.82732Z" fill="white"/>
</svg>
