<?xml version="1.0" standalone="no"?>
<!DOCTYPE svg PUBLIC "-//W3C//DTD SVG 20010904//EN"
 "http://www.w3.org/TR/2001/REC-SVG-20010904/DTD/svg10.dtd">
<svg version="1.0" xmlns="http://www.w3.org/2000/svg"
 width="350.000000pt" height="567.000000pt" viewBox="0 0 350.000000 567.000000"
 preserveAspectRatio="xMidYMid meet">

<g transform="translate(0.000000,567.000000) scale(0.100000,-0.100000)"
fill="#000000" stroke="none">
<path d="M0 2835 l0 -2835 1750 0 1750 0 0 2835 0 2835 -1750 0 -1750 0 0
-2835z m810 2765 c0 -11 -9 -24 -19 -30 -18 -9 -19 -8 -10 22 5 18 9 34 9 36
0 2 5 0 10 -3 6 -3 10 -15 10 -25z m-54 -82 c-18 -26 -22 -17 -5 14 6 11 13
17 16 15 3 -3 -2 -16 -11 -29z m24 -1 c0 -12 -39 -75 -43 -71 -7 7 25 73 36
74 4 0 7 -1 7 -3z m-62 -47 c-7 -10 -14 -18 -15 -16 -6 6 9 36 18 36 5 0 4 -9
-3 -20z m999 -46 c-10 -32 -12 -33 -19 -15 -4 12 -13 21 -20 21 -16 1 21 30
38 30 9 0 10 -8 1 -36z m248 -55 c14 -22 -3 -18 -26 7 -23 25 -23 26 -2 15 12
-6 25 -16 28 -22z m-1140 -8 c16 -6 11 -9 -23 -12 -37 -4 -41 -3 -26 8 20 15
21 15 49 4z m120 -21 c18 -1 19 -1 2 -11 -9 -5 -22 -7 -29 -3 -6 4 -25 11 -42
15 -27 8 -26 8 9 4 22 -3 49 -5 60 -5z m815 -10 c8 -5 11 -12 7 -16 -4 -4 -15
0 -24 9 -18 18 -8 23 17 7z m-910 -10 c0 -13 -11 -13 -30 0 -12 8 -11 10 8 10
12 0 22 -4 22 -10z m968 -20 c12 0 13 -3 5 -11 -14 -14 -67 -3 -57 12 3 6 13
8 21 5 8 -3 22 -6 31 -6z m85 -24 c29 11 19 -3 -19 -26 l-35 -22 -21 22 c-20
22 -20 22 -1 16 13 -4 25 -1 33 9 9 11 15 12 20 5 4 -6 14 -8 23 -4z m-1107
-39 c36 -16 104 -57 104 -63 0 -7 -74 26 -80 35 -3 4 -17 11 -32 15 -16 3 -28
11 -28 16 0 13 2 13 36 -3z m834 -22 c-10 -12 -10 -15 1 -15 11 0 11 -2 1 -8
-12 -8 -7 -41 8 -52 17 -12 19 -47 5 -66 -14 -19 -14 -18 -15 4 0 12 5 22 11
22 7 0 0 12 -15 26 -35 36 -34 104 1 104 13 0 13 -3 3 -15z m277 -67 c-3 -7
-5 -2 -5 12 0 14 2 19 5 13 2 -7 2 -19 0 -25z m-27 7 c0 -17 -2 -18 -25 -9
-13 5 -14 8 -3 15 19 13 28 11 28 -6z m-173 -36 c-6 -21 -5 -21 18 1 23 22 26
22 49 6 31 -20 37 -20 30 -1 -4 8 -1 15 5 15 6 0 11 -6 11 -14 0 -8 11 -13 25
-13 33 0 41 -9 25 -28 -8 -10 -9 -15 -1 -15 6 0 11 -9 11 -21 0 -16 -4 -19
-20 -14 -15 5 -18 3 -14 -9 9 -22 34 -20 61 6 13 12 26 19 29 15 11 -11 -132
-149 -151 -145 -10 1 -41 29 -68 61 -56 64 -65 103 -34 151 21 31 31 34 24 5z
m238 -19 c-3 -5 -11 -10 -16 -10 -6 0 -7 5 -4 10 3 6 11 10 16 10 6 0 7 -4 4
-10z m-489 -24 c29 -22 13 -26 -21 -5 -17 11 -23 19 -14 19 8 0 24 -6 35 -14z
m-803 -44 c8 -7 39 -21 68 -32 49 -18 51 -19 22 -20 -34 0 -43 -16 -21 -38 6
-6 9 -14 6 -17 -8 -9 -58 35 -58 51 0 9 -11 30 -25 48 -14 18 -25 39 -24 47 0
8 4 5 9 -6 4 -12 15 -26 23 -33z m1274 31 c-9 -9 -20 -13 -24 -9 -4 4 -1 11 7
16 25 16 35 11 17 -7z m-267 -93 c0 -5 -2 -10 -4 -10 -3 0 -8 5 -11 10 -3 6
-1 10 4 10 6 0 11 -4 11 -10z m-510 -170 c-11 -16 -31 -48 -45 -72 -26 -45
-35 -33 -11 15 8 15 11 27 7 27 -5 0 -14 -14 -21 -30 -15 -36 -30 -49 -23 -19
4 12 25 41 48 65 23 24 39 47 36 50 -3 3 2 2 12 -2 16 -6 15 -8 -3 -34z m-50
17 c0 -2 -10 -12 -22 -23 l-23 -19 19 23 c18 21 26 27 26 19z m91 -43 c-5 -21
-10 -30 -10 -19 -2 19 -2 19 -15 3 -19 -25 -29 -22 -15 5 12 22 42 56 47 52 1
-1 -2 -20 -7 -41z m73 20 c3 -9 6 -23 5 -32 0 -12 -2 -13 -6 -4 -4 10 -9 8
-20 -7 -18 -26 -30 -27 -38 -1 -13 42 43 85 59 44z m86 -131 c0 -12 -12 -31
-26 -42 -25 -20 -26 -21 -5 -21 12 0 21 -6 21 -15 0 -8 5 -15 10 -15 6 0 10 5
10 12 0 6 2 9 5 6 3 -3 3 -13 -1 -22 -7 -19 -30 -21 -37 -3 -3 6 -6 3 -6 -8
-1 -13 -17 -29 -43 -44 -43 -25 -56 -34 -89 -63 -18 -17 -19 -17 -20 0 -1 9
-1 20 0 25 2 15 -19 6 -33 -15 -17 -23 -16 -24 -20 25 -1 7 8 11 22 9 12 -2
22 2 22 7 0 6 -7 11 -16 11 -14 0 -14 1 0 16 9 9 16 32 16 56 0 36 2 39 16 27
11 -9 14 -23 10 -47 -5 -33 -5 -34 19 -18 18 12 25 12 29 3 6 -15 42 25 62 71
8 17 21 32 29 32 8 0 15 7 15 15 0 8 -4 15 -10 15 -5 0 -7 7 -3 16 5 13 7 13
14 2 5 -7 9 -23 9 -35z m195 -51 c35 -7 41 -22 10 -22 -23 0 -33 7 -42 27 -17
35 -16 55 0 23 7 -14 21 -26 32 -28z m-315 -21 c0 -5 -7 -14 -15 -21 -16 -14
-18 -10 -9 14 6 17 24 22 24 7z m413 -30 c16 -6 27 -18 27 -30 0 -11 7 -27 16
-36 9 -9 14 -19 11 -22 -8 -7 -232 -5 -262 3 -46 11 -161 -29 -260 -91 l-30
-19 35 39 c19 21 46 49 60 61 26 24 177 102 218 113 30 8 148 -3 185 -18z
m-498 -1 c3 -5 1 -10 -4 -10 -6 0 -11 5 -11 10 0 6 2 10 4 10 3 0 8 -4 11 -10z
m560 -40 c3 -5 32 -14 65 -21 50 -10 60 -15 60 -32 0 -19 1 -19 19 -3 21 19
43 14 35 -8 -3 -7 2 -16 10 -19 9 -4 16 -14 16 -22 0 -20 -23 -14 -90 21 -25
13 -52 24 -60 24 -17 1 -90 70 -73 70 7 0 14 -4 18 -10z m202 -62 c-3 -8 -6
-5 -6 6 -1 11 2 17 5 13 3 -3 4 -12 1 -19z m163 -53 c13 -14 21 -25 18 -25 -2
0 -15 11 -28 25 -13 14 -21 25 -18 25 2 0 15 -11 28 -25z m-823 -11 c-21 -14
-36 -28 -33 -32 4 -3 20 5 37 17 16 12 35 20 42 18 7 -2 -1 -10 -16 -17 -16
-8 -26 -19 -23 -27 4 -9 -1 -12 -17 -8 -12 3 -34 2 -47 -4 -22 -9 -23 -10 -4
-10 11 -1 24 -4 27 -8 10 -10 -25 -32 -53 -34 -23 -1 -23 -1 6 -10 16 -5 41
-20 54 -34 l23 -25 -41 0 c-30 0 -44 -5 -51 -19 -9 -16 -5 -20 29 -30 43 -13
62 -31 32 -31 -23 0 -36 -24 -33 -62 2 -16 -8 -41 -22 -60 -36 -48 -50 -99
-37 -133 7 -20 8 -31 0 -39 -7 -7 -10 -2 -10 15 -1 13 -7 35 -15 49 -25 44
-15 131 10 90 11 -18 41 32 49 77 l6 43 -40 6 c-36 6 -67 24 -41 24 16 0 13
31 -5 51 -20 22 -11 39 21 39 20 0 24 5 23 24 -2 21 -5 23 -31 15 -16 -4 -36
-14 -45 -21 -12 -10 -14 -10 -8 0 10 17 153 122 196 144 51 26 60 22 17 -8z
m503 16 c0 -5 -4 -10 -10 -10 -5 0 -10 5 -10 10 0 6 5 10 10 10 6 0 10 -4 10
-10z m-736 -66 c3 -8 2 -12 -4 -9 -6 3 -10 10 -10 16 0 14 7 11 14 -7z m66
-14 c13 -8 13 -10 -2 -10 -9 0 -20 5 -23 10 -8 13 5 13 25 0z m704 -14 c46
-19 93 -81 106 -138 13 -61 13 -81 0 -73 -5 3 -10 16 -10 28 0 12 -9 41 -20
65 -15 34 -29 46 -66 63 -61 26 -94 18 -151 -34 -65 -60 -87 -108 -87 -192 -1
-94 16 -137 67 -175 46 -33 80 -37 134 -15 30 13 34 13 24 1 -7 -8 -33 -22
-58 -30 -80 -27 -158 8 -194 88 -36 80 -17 223 44 324 34 57 56 76 108 90 48
14 65 14 103 -2z m465 -135 c106 -118 121 -142 93 -147 -7 -1 -8 0 -2 3 5 2 8
9 5 13 -6 10 -36 2 -45 -12 -3 -4 -18 6 -32 22 -14 16 -23 32 -20 35 8 8 32
-16 32 -31 0 -16 16 -19 25 -4 4 6 11 8 16 5 31 -20 -30 56 -161 198 -30 33
-48 56 -39 51 9 -5 66 -65 128 -133z m-1199 119 c0 -5 -5 -10 -11 -10 -5 0 -7
5 -4 10 3 6 8 10 11 10 2 0 4 -4 4 -10z m237 -1 c-17 -10 -16 -13 15 -40 18
-15 39 -28 46 -29 7 0 11 -4 8 -9 -3 -4 3 -16 14 -26 11 -10 20 -23 20 -29 0
-5 -19 8 -42 30 -24 22 -62 49 -86 59 -55 24 -72 43 -33 37 16 -2 32 1 35 7 4
6 15 11 24 11 15 -1 15 -2 -1 -11z m83 -4 c13 -16 7 -45 -9 -45 -6 0 -8 7 -4
16 4 10 -1 17 -16 21 -11 3 -18 9 -15 14 8 14 30 11 44 -6z m719 -55 c4 -3 30
-32 59 -66 49 -57 65 -83 42 -69 -6 4 -5 -5 2 -19 6 -14 15 -26 20 -26 12 0
10 14 -4 28 -7 7 -8 12 -2 12 5 -1 23 -19 39 -40 17 -21 37 -39 45 -40 13 0
13 -1 0 -10 -9 -6 -17 -5 -22 3 -5 9 -10 8 -20 -2 -10 -10 -10 -12 0 -7 14 8
17 -10 2 -19 -5 -3 -18 12 -30 35 -11 22 -27 40 -34 40 -8 0 -19 19 -25 43 -6
24 -28 60 -51 85 -22 25 -40 53 -39 65 0 15 2 17 6 7 3 -8 9 -17 12 -20z m135
-115 l17 -30 -20 24 c-12 13 -21 28 -21 34 0 12 0 11 24 -28z m-353 -168 c-10
-9 -11 -8 -5 6 3 10 9 15 12 12 3 -3 0 -11 -7 -18z m219 -6 c0 -5 -9 -11 -20
-14 -20 -5 -26 3 -13 16 9 10 33 8 33 -2z m-240 -31 c-6 -11 -13 -20 -16 -20
-2 0 0 9 6 20 6 11 13 20 16 20 2 0 0 -9 -6 -20z m70 -112 c0 -6 -3 -8 -6 -5
-4 3 -16 1 -28 -5 -19 -10 -20 -10 -7 5 16 19 41 23 41 5z m-780 -55 c-1 -52
4 -78 19 -100 8 -10 0 -4 -16 13 -16 16 -35 28 -41 26 -9 -3 -10 3 -2 22 5 14
14 37 20 51 14 35 21 31 20 -12z m821 20 c13 -16 12 -17 -3 -4 -10 7 -18 15
-18 17 0 8 8 3 21 -13z m459 -45 c15 -21 17 -28 6 -19 -16 13 -41 51 -33 51 2
0 14 -15 27 -32z m-310 -43 c13 -14 21 -25 18 -25 -2 0 -15 11 -28 25 -13 14
-21 25 -18 25 2 0 15 -11 28 -25z m-445 -33 c22 -11 72 -45 110 -75 39 -30 85
-62 103 -71 19 -10 31 -20 28 -23 -3 -3 -38 15 -77 41 -56 37 -74 45 -80 34
-5 -7 -9 -18 -9 -24 0 -29 91 -99 143 -108 20 -4 37 -11 37 -16 0 -5 16 -12
35 -16 19 -3 35 -11 35 -16 0 -6 7 -8 15 -5 16 7 30 -9 16 -17 -16 -10 -161
14 -246 41 -44 14 -120 45 -170 69 -63 31 -82 37 -62 21 15 -13 51 -57 80 -97
47 -65 62 -78 147 -126 133 -75 200 -96 270 -85 30 5 60 7 66 4 7 -2 15 0 18
5 7 11 -38 23 -177 47 -54 10 -96 20 -93 22 6 6 189 -23 249 -38 20 -5 37 -15
37 -22 0 -7 28 -27 63 -45 l62 -31 -50 4 c-27 2 -85 7 -128 10 -130 8 -369
115 -469 209 -39 36 -49 36 -24 0 15 -21 41 -103 37 -118 -1 -4 14 -39 34 -77
19 -37 35 -78 34 -91 0 -16 -4 -11 -13 17 -12 39 -30 75 -52 105 -6 8 -22 42
-35 75 -13 33 -28 65 -32 70 -4 6 -25 39 -46 75 -35 59 -71 89 -71 60 0 -6 4
-9 9 -6 11 7 69 -81 87 -132 7 -20 13 -58 14 -83 0 -50 -15 -68 -70 -83 -24
-7 -24 -6 -6 8 25 20 4 21 -35 1 -17 -9 -35 -12 -43 -8 -27 15 -86 95 -87 116
0 12 -2 34 -4 49 -2 15 1 31 7 34 6 4 8 2 4 -4 -3 -6 -2 -13 3 -16 5 -3 7 -15
4 -25 -3 -10 -1 -21 4 -24 4 -3 9 17 11 44 1 29 -2 49 -8 49 -5 0 -10 5 -10
10 0 6 6 10 14 10 8 0 24 9 37 20 l24 19 -43 -16 c-35 -13 -45 -14 -52 -4 -7
12 -9 2 -21 -84 -1 -5 2 -19 7 -30 8 -19 7 -19 -16 -4 -40 26 -52 57 -46 122
11 118 74 191 202 237 74 26 170 23 229 -8z m430 8 c10 -11 16 -20 13 -20 -3
0 -13 9 -23 20 -10 11 -16 20 -13 20 3 0 13 -9 23 -20z m-1235 -15 c0 -7 -7
-18 -15 -25 -12 -10 -16 -9 -21 4 -9 24 3 47 21 40 8 -3 15 -12 15 -19z m1650
-100 c7 -8 8 -15 3 -15 -12 0 -39 56 -47 100 -4 25 -1 20 13 -17 10 -29 24
-59 31 -68z m-720 70 c0 -8 -7 -15 -16 -15 -14 0 -14 3 -4 15 7 8 14 15 16 15
2 0 4 -7 4 -15z m341 -2 c13 -16 12 -17 -3 -4 -10 7 -18 15 -18 17 0 8 8 3 21
-13z m-1321 -13 c-19 -13 -30 -13 -30 0 0 6 10 10 23 10 18 0 19 -2 7 -10z
m165 -15 c28 -12 40 -13 51 -4 9 7 14 8 14 1 0 -6 -4 -14 -10 -17 -5 -3 -10
-11 -10 -18 0 -6 11 1 25 16 29 31 52 37 36 10 -7 -13 -5 -23 7 -37 16 -18 16
-19 -5 -14 -22 6 -33 -7 -14 -14 17 -6 30 -85 17 -106 -30 -51 -56 -89 -72
-104 -17 -17 -10 -24 19 -19 4 0 7 -10 7 -24 0 -22 -9 -30 -26 -22 -3 1 -12
-10 -20 -25 -15 -29 -48 -37 -58 -15 -3 6 -3 1 0 -12 5 -19 3 -23 -9 -18 -20
8 -29 -3 -16 -20 6 -7 8 -13 4 -13 -4 0 -14 8 -21 18 -8 10 -13 12 -14 5 0
-15 -30 -18 -30 -3 0 6 5 10 12 10 6 0 4 7 -5 18 -10 10 -17 22 -17 25 0 12
28 7 33 -5 3 -7 3 5 0 27 -4 22 -13 45 -22 50 -15 10 -21 11 -49 14 -7 0 -18
12 -24 26 -8 18 -17 24 -30 19 -10 -3 -18 -1 -18 5 0 6 4 11 9 11 4 0 6 22 3
50 -5 50 12 110 30 110 5 0 6 5 3 10 -3 6 -1 10 5 10 7 0 9 8 5 22 -6 17 -4
20 9 15 9 -4 16 -1 16 5 0 6 6 6 18 -3 9 -7 14 -9 9 -4 -9 10 35 30 74 33 14
1 43 -5 64 -13z m1195 -13 c0 -15 -2 -15 -10 -2 -13 20 -13 33 0 25 6 -3 10
-14 10 -23z m57 -8 c-3 -3 -12 -4 -19 -1 -8 3 -5 6 6 6 11 1 17 -2 13 -5z
m-310 -40 c-3 -3 -12 -4 -19 -1 -8 3 -5 6 6 6 11 1 17 -2 13 -5z m-700 -20
c-3 -3 -12 -4 -19 -1 -8 3 -5 6 6 6 11 1 17 -2 13 -5z m1341 -53 c13 -33 30
-65 38 -72 12 -10 13 -9 8 7 -6 16 -5 17 7 7 10 -10 10 -16 1 -25 -9 -9 -15
-9 -23 -1 -20 20 -75 143 -65 143 6 0 21 -27 34 -59z m56 28 c19 -15 25 -27
21 -46 -5 -31 -11 -38 -20 -24 -3 6 -2 11 4 11 21 0 -11 59 -37 69 -15 5 -20
10 -11 10 9 1 28 -8 43 -20z m-499 1 c3 -5 1 -10 -4 -10 -6 0 -11 5 -11 10 0
6 2 10 4 10 3 0 8 -4 11 -10z m75 -10 c8 -15 8 -20 -3 -20 -7 0 -13 9 -13 20
0 11 1 20 3 20 1 0 7 -9 13 -20z m519 -45 c13 -22 15 -31 6 -20 -18 22 -53 86
-38 70 6 -5 20 -28 32 -50z m-1029 -41 c0 -30 -7 -30 -31 -1 -25 30 -24 35 6
29 18 -3 25 -11 25 -28z m1030 -69 c-1 -27 -7 -58 -14 -68 -13 -16 -14 -16
-36 1 l-23 19 26 48 c15 26 27 55 27 64 0 14 2 14 10 1 5 -8 10 -37 10 -65z
m55 -60 c8 -19 8 -19 -8 -3 -12 11 -17 31 -16 65 l2 48 7 -45 c4 -25 11 -54
15 -65z m-972 28 c4 -7 14 -13 22 -13 8 0 17 -4 20 -10 17 -27 -22 -4 -64 38
-26 26 -33 36 -17 22 17 -14 34 -31 39 -37z m467 57 c0 -5 -2 -10 -4 -10 -3 0
-8 5 -11 10 -3 6 -1 10 4 10 6 0 11 -4 11 -10z m-1100 -20 c0 -5 -5 -10 -11
-10 -5 0 -7 5 -4 10 3 6 8 10 11 10 2 0 4 -4 4 -10z m760 -318 c36 -23 62 -42
59 -42 -19 0 -82 34 -144 78 -78 55 -125 103 -154 160 -16 30 -2 20 77 -58 54
-52 126 -114 162 -138z m851 211 c8 6 7 3 -3 -7 -15 -17 -14 -21 17 -65 18
-25 44 -69 58 -97 38 -76 82 -138 123 -174 20 -17 34 -34 31 -37 -14 -13 -120
116 -155 187 -40 84 -82 146 -112 167 -25 17 -17 37 9 23 12 -6 22 -5 32 3z
m-1457 -61 c-11 -15 -28 -46 -39 -70 -11 -26 -21 -38 -26 -31 -12 20 -20 -43
-10 -78 11 -37 -2 -45 -19 -13 -8 16 -8 33 3 70 17 58 14 63 -9 19 -16 -31
-15 -73 1 -114 6 -16 5 -17 -4 -9 -20 18 -25 87 -10 116 18 34 121 149 128
143 2 -3 -4 -18 -15 -33z m-332 -14 c-9 -9 -12 -9 -12 1 0 7 -4 9 -10 6 -5 -3
-10 -2 -10 4 0 13 23 20 35 10 5 -6 5 -13 -3 -21z m358 12 c-6 -11 -13 -20
-16 -20 -2 0 0 9 6 20 6 11 13 20 16 20 2 0 0 -9 -6 -20z m1480 -122 c29 -56
69 -119 88 -140 41 -46 32 -48 -30 -9 -57 36 -82 72 -84 121 -1 20 -16 65 -34
101 -25 49 -28 60 -13 46 11 -9 44 -63 73 -119z m-1278 61 c-11 -24 -43 -73
-72 -109 -68 -84 -100 -151 -101 -215 0 -27 -3 -44 -6 -38 -3 9 -11 9 -31 -3
l-27 -16 26 23 c20 18 28 37 32 78 4 29 14 65 23 79 15 23 15 25 -1 19 -9 -4
15 28 55 70 39 43 81 99 93 126 27 59 35 47 9 -14z m303 34 c14 -9 15 -13 5
-13 -8 0 -26 9 -40 20 -20 16 -21 19 -5 13 11 -3 29 -12 40 -20z m-908 -5 c-3
-8 -6 -5 -6 6 -1 11 2 17 5 13 3 -3 4 -12 1 -19z m-92 2 c-3 -5 3 -10 14 -10
19 0 21 -6 20 -52 -1 -29 -4 -41 -6 -25 -2 15 -11 27 -19 27 -8 0 -14 6 -14
13 0 6 -3 22 -6 35 -4 13 -2 22 5 22 7 0 9 -4 6 -10z m759 -15 c16 -24 15 -25
-3 -25 -10 0 -22 7 -25 16 -16 40 3 47 28 9z m-684 5 c0 -5 -7 -10 -15 -10 -8
0 -15 5 -15 10 0 6 7 10 15 10 8 0 15 -4 15 -10z m437 -37 c-9 -15 -28 -39
-43 -53 -29 -25 -19 -8 19 35 10 11 21 31 24 45 4 14 8 20 10 13 2 -6 -2 -24
-10 -40z m82 25 c-9 -16 -14 -19 -17 -9 -2 7 2 17 9 22 20 13 21 11 8 -13z
m1216 -18 c4 -16 3 -36 -2 -45 -7 -12 -11 -9 -20 15 -8 23 -8 30 0 30 8 0 7 4
-2 9 -7 5 -10 14 -7 20 11 17 24 5 31 -29z m-1184 -23 c-13 -12 -21 -15 -17
-7 3 8 9 23 12 33 5 13 10 15 17 8 8 -8 5 -18 -12 -34z m539 23 c22 -11 46
-20 55 -20 10 0 13 -5 9 -12 -4 -7 -3 -8 5 -4 36 23 237 -148 266 -227 10 -26
27 -54 37 -61 11 -8 30 -29 44 -47 13 -18 24 -28 24 -22 0 7 -7 18 -15 26 -11
11 -11 17 -3 19 13 5 -38 78 -54 78 -5 0 -16 15 -24 33 -8 17 -21 42 -30 55
-31 42 -2 22 68 -48 39 -38 72 -70 74 -70 7 0 -66 113 -83 130 -14 13 -15 13
-10 -2 8 -24 5 -23 -24 8 -17 18 -19 23 -6 18 14 -5 16 -2 11 12 -4 11 -14 25
-22 31 -9 7 -13 15 -10 18 7 7 64 -49 78 -76 6 -10 20 -19 30 -19 11 0 20 -6
20 -13 0 -14 35 -47 50 -47 6 0 10 -8 10 -17 0 -10 12 -38 27 -63 20 -34 26
-60 27 -107 1 -33 4 -59 8 -57 4 3 17 -15 29 -38 12 -24 29 -54 39 -68 9 -14
20 -38 24 -55 11 -46 21 -52 99 -66 40 -8 64 -15 54 -17 -14 -3 -15 -7 -7 -17
9 -11 -1 -14 -50 -17 -53 -3 -60 -1 -60 16 0 15 3 16 15 6 8 -6 20 -8 26 -4 9
5 7 10 -7 15 -36 14 -44 10 -44 -26 0 -19 -4 -35 -10 -35 -10 0 -35 41 -32 52
4 16 -49 39 -99 44 -28 2 -57 9 -64 14 -12 10 -193 90 -203 90 -3 0 2 -8 11
-17 8 -10 15 -20 14 -23 -3 -10 73 -116 105 -146 47 -43 103 -75 121 -68 8 3
18 1 22 -5 3 -6 -2 -14 -11 -18 -20 -8 -271 25 -296 38 -28 15 -21 -3 17 -45
l36 -38 -43 5 c-24 3 -69 9 -100 13 -36 4 -65 14 -79 27 -20 19 -23 19 -34 4
-11 -15 -14 -15 -34 -1 -22 16 -22 16 -2 30 20 14 20 15 -5 63 -13 27 -24 57
-25 67 0 17 -2 17 -11 -2 -9 -19 -22 -28 -70 -52 -5 -2 -8 3 -8 10 0 23 77 99
93 92 11 -4 16 5 19 33 6 42 4 48 -11 38 -6 -3 -12 -18 -12 -33 -1 -15 -5 2
-9 38 -4 36 -6 68 -3 72 9 16 29 -17 26 -41 -3 -23 -2 -24 6 -6 5 11 10 16 11
10 1 -5 3 -14 4 -20 1 -5 6 -19 11 -30 8 -17 11 -13 17 25 19 118 20 122 29
109 6 -9 7 -1 4 21 -3 19 -3 29 1 23 8 -18 22 -16 28 5 2 9 4 4 3 -13 -2 -22
3 -31 18 -33 16 -4 17 -2 7 10 -14 17 -6 28 21 28 12 0 17 -5 14 -14 -3 -8 2
-16 14 -19 10 -3 19 -3 19 0 0 13 -27 51 -58 80 -26 25 -38 30 -44 21 -5 -9
-8 -8 -8 6 0 11 -3 17 -6 14 -3 -4 -27 15 -54 42 -27 27 -51 46 -53 43 -3 -2
-15 1 -27 7 -12 6 -19 14 -16 17 3 3 12 0 20 -6 8 -7 20 -10 25 -7 5 4 26 -9
45 -29 41 -41 81 -47 83 -13 2 17 0 19 -7 8 -14 -22 -23 -5 -11 19 9 16 8 28
-4 51 -9 16 -12 30 -8 30 5 0 -7 10 -24 21 -18 12 -31 24 -29 27 4 7 -13 26
-26 30 -27 8 -37 15 -33 23 7 10 -45 37 -63 33 -7 -1 -8 0 -2 3 5 2 7 9 4 15
-3 5 7 3 22 -5 60 -32 128 -87 163 -133 20 -26 45 -52 55 -58 24 -14 86 -77
86 -88 0 -4 7 -8 15 -8 8 0 15 -7 15 -15 0 -7 7 -18 16 -23 11 -6 13 -11 5
-16 -7 -5 -4 -14 9 -28 21 -22 38 -19 24 4 -5 7 -9 15 -9 18 -2 18 -40 88 -46
85 -4 -3 -10 6 -13 19 -3 13 -43 62 -88 108 -60 60 -107 97 -168 131 -77 43
-82 47 -52 47 18 0 50 -9 72 -20z m-1063 -12 c-3 -8 -6 -5 -6 6 -1 11 2 17 5
13 3 -3 4 -12 1 -19z m663 -33 l23 -25 -25 0 c-25 0 -44 23 -32 41 7 12 7 12
34 -16z m-625 -5 c4 -6 13 -9 22 -8 9 2 23 -12 34 -31 10 -19 27 -39 36 -45
16 -8 15 -6 -1 13 -15 16 -16 20 -4 16 8 -3 25 -20 38 -37 19 -26 20 -30 6
-25 -10 4 -29 10 -42 13 -14 4 -27 16 -30 30 l-6 23 -25 -27 c-23 -25 -24 -25
-9 -2 18 27 22 65 6 55 -16 -10 -50 5 -50 21 0 16 16 19 25 4z m-75 -16 c0
-10 6 -14 14 -11 8 3 17 -1 20 -10 10 -24 0 -26 -28 -8 -26 17 -36 45 -16 45
6 0 10 -7 10 -16z m1403 -33 c14 -23 15 -31 5 -37 -7 -4 -10 -4 -6 1 5 5 -6
17 -24 28 -25 15 -28 21 -17 28 21 13 23 12 42 -20z m-921 -3 c-7 -7 -12 -8
-12 -2 0 14 12 26 19 19 2 -3 -1 -11 -7 -17z m292 -18 c17 0 38 -5 46 -11 12
-9 12 -10 -4 -5 -11 4 -22 2 -25 -3 -3 -5 -19 -10 -36 -11 -45 -3 -57 -1 -50
10 3 5 1 18 -5 29 -8 16 -6 20 8 23 9 2 21 -4 26 -14 6 -11 20 -18 40 -18z
m-401 15 c-3 -9 -8 -14 -10 -11 -3 3 -2 9 2 15 9 16 15 13 8 -4z m1272 -7 c33
2 85 -16 85 -29 0 -12 -3 -11 -36 6 -16 8 -35 15 -43 15 -8 0 7 -11 34 -25 27
-13 52 -22 57 -19 22 14 38 -20 36 -75 -1 -32 -3 -43 -5 -25 -5 41 -51 84
-138 129 -38 20 -59 32 -45 28 14 -4 39 -6 55 -5z m-1585 -34 c0 -2 -9 0 -20
6 -11 6 -20 13 -20 16 0 2 9 0 20 -6 11 -6 20 -13 20 -16z m384 1 c-9 -14 -18
-25 -21 -25 -5 0 5 18 20 38 17 22 18 13 1 -13z m-177 -7 c-3 -8 -6 -5 -6 6
-1 11 2 17 5 13 3 -3 4 -12 1 -19z m1573 15 c0 -5 -5 -15 -10 -23 -9 -13 -11
-13 -19 0 -5 8 -7 18 -5 22 6 10 34 11 34 1z m177 -109 c59 -21 69 -29 48 -38
-9 -3 -14 -2 -11 3 7 11 -41 24 -56 15 -7 -4 -8 -3 -4 4 4 7 3 12 -3 12 -6 0
-35 20 -66 45 -58 47 -63 46 -57 -15 7 -60 6 -140 0 -140 -4 0 -8 27 -8 59 0
33 -4 71 -10 85 -5 15 -6 26 -1 26 5 0 12 13 16 29 l6 29 49 -48 c28 -28 70
-56 97 -66z m-1437 96 c0 -5 -4 -10 -9 -10 -6 0 -13 5 -16 10 -3 6 1 10 9 10
9 0 16 -4 16 -10z m526 -37 c24 -25 42 -39 38 -29 -5 12 -2 15 10 10 13 -5 14
-9 5 -20 -17 -21 -32 -17 -54 13 -11 15 -30 38 -42 50 -12 13 -17 23 -12 23 6
0 30 -21 55 -47z m-781 11 c-11 -9 -36 -23 -55 -31 -19 -8 -44 -22 -55 -31
-19 -16 -19 -16 -5 1 7 10 39 32 69 47 64 33 75 36 46 14z m679 -10 c3 -8 2
-12 -4 -9 -6 3 -10 10 -10 16 0 14 7 11 14 -7z m-554 -24 c-6 -11 -13 -20 -16
-20 -2 0 0 9 6 20 6 11 13 20 16 20 2 0 0 -9 -6 -20z m490 10 c-18 -11 -19
-11 68 -44 40 -16 71 -30 68 -33 -2 -3 -14 1 -26 7 -38 20 -31 5 16 -34 28
-24 43 -44 40 -53 -3 -8 -2 -11 4 -8 5 3 14 -3 19 -14 15 -27 14 -30 -9 -24
-16 4 -20 0 -20 -20 0 -14 5 -29 10 -32 6 -3 10 -11 10 -16 0 -6 -12 3 -26 18
-15 15 -31 27 -36 25 -5 -1 -7 2 -4 7 3 5 -1 11 -9 15 -8 3 -15 11 -15 18 0 9
3 8 10 -2 6 -9 10 -10 10 -3 0 6 -5 15 -10 18 -6 4 -9 14 -8 22 2 9 -3 18 -10
20 -9 4 -11 -5 -6 -39 l7 -43 -56 57 c-52 52 -57 55 -57 33 0 -16 -6 -25 -16
-25 -9 0 -12 5 -8 12 4 7 3 8 -5 4 -6 -4 -18 -4 -24 1 -7 4 -1 -3 13 -16 25
-23 22 -24 -27 -4 -16 6 -17 -23 -1 -33 7 -4 8 -3 4 5 -5 8 3 10 28 7 22 -3
36 0 36 6 0 7 10 2 23 -10 33 -31 45 -27 16 6 -13 15 -5 9 19 -13 53 -49 56
-74 6 -40 -20 14 -42 25 -49 25 -19 0 -26 -12 -15 -25 12 -15 -15 -29 -33 -18
-7 3 -1 -6 13 -21 21 -24 31 -27 63 -23 20 3 37 4 37 2 0 -2 3 -10 6 -19 4
-10 1 -16 -7 -16 -8 0 -21 -4 -29 -10 -12 -7 -12 -12 4 -29 19 -21 19 -21 -22
-21 -23 0 -42 -5 -42 -11 0 -6 8 -8 19 -4 10 3 29 1 42 -4 22 -9 22 -10 -11
-11 -19 0 -30 -4 -25 -8 6 -4 16 -20 23 -36 10 -22 10 -32 1 -40 -9 -8 -10 -7
-6 7 7 18 -8 24 -18 7 -12 -20 -53 -9 -113 30 -34 21 -63 36 -66 32 -7 -12 36
-102 49 -102 13 0 36 -30 47 -61 5 -11 1 -16 -10 -15 -13 1 -17 -7 -17 -31 0
-28 -3 -32 -20 -27 -11 4 -22 10 -25 14 -3 4 -14 10 -26 14 -26 8 -70 53 -61
63 4 3 14 -2 22 -13 13 -17 14 -14 8 35 -5 40 -3 52 5 47 9 -5 9 -1 3 17 -7
19 -5 34 9 61 l18 36 -27 0 c-34 0 -48 10 -51 35 -4 37 0 43 21 38 14 -4 17
-9 10 -16 -17 -17 -13 -27 10 -27 11 0 17 5 14 10 -3 6 -2 10 4 10 6 0 15 -9
21 -20 6 -11 16 -20 22 -20 6 0 3 9 -7 20 -20 22 -14 26 16 10 13 -8 19 -7 19
0 0 6 -10 14 -22 19 -12 4 -27 23 -34 42 -7 19 -13 26 -13 16 -1 -10 4 -27 10
-39 6 -11 8 -22 5 -25 -3 -3 -11 7 -18 23 -6 16 -18 36 -26 45 -7 9 -17 30
-22 45 -7 26 -8 27 -9 6 -1 -13 8 -35 19 -49 22 -28 28 -55 8 -35 -18 18 -26
15 -41 -15 -13 -24 -12 -30 2 -57 10 -17 20 -40 24 -51 6 -16 3 -15 -13 5 -11
14 -20 33 -20 43 0 24 -21 22 -27 -3 -3 -11 -9 -20 -14 -20 -5 0 -5 10 0 23 4
12 11 41 15 65 5 36 4 42 -11 42 -11 0 -14 3 -7 8 6 4 19 30 28 59 12 36 30
63 59 88 23 20 52 45 64 56 28 25 118 57 163 58 25 1 31 -2 20 -9z m115 0 c4
-6 10 -8 15 -5 5 3 11 1 14 -4 12 -18 -23 -19 -40 0 -9 10 -12 19 -6 19 6 0
14 -5 17 -10z m-1170 -28 c15 -8 16 -11 5 -12 -18 0 -40 19 -40 35 0 7 3 6 8
-1 4 -6 16 -16 27 -22z m1810 -19 c-9 -37 -18 -20 -9 19 4 18 9 27 11 20 3 -7
2 -24 -2 -39z m-25 22 c0 -8 -4 -15 -9 -15 -5 0 -11 7 -15 15 -3 9 0 15 9 15
8 0 15 -7 15 -15z m60 3 c0 -7 -5 -20 -10 -28 -8 -12 -10 -9 -10 13 0 15 5 27
10 27 6 0 10 -6 10 -12z m-970 -7 c0 -5 -12 -17 -27 -26 l-28 -18 24 27 c26
28 31 31 31 17z m-337 -26 c-3 -9 -8 -14 -10 -11 -3 3 -2 9 2 15 9 16 15 13 8
-4z m77 1 c0 -3 -4 -8 -10 -11 -5 -3 -10 -1 -10 4 0 6 5 11 10 11 6 0 10 -2
10 -4z m655 -6 c-3 -5 -12 -10 -18 -10 -7 0 -6 4 3 10 19 12 23 12 15 0z
m-945 -22 c0 -32 -15 -55 -23 -35 -7 19 2 57 14 57 5 0 9 -10 9 -22z m141 7
c0 -5 -9 -11 -21 -13 -20 -3 -27 8 -13 22 10 9 34 3 34 -9z m-288 -12 c-7 -2
-19 -2 -25 0 -7 3 -2 5 12 5 14 0 19 -2 13 -5z m1697 -43 c0 -27 -3 -50 -7
-50 -5 0 -6 22 -5 50 5 65 12 65 12 0z m-636 13 c35 -38 26 -40 -14 -3 -18 16
-27 30 -21 30 5 0 21 -12 35 -27z m-967 -9 c-3 -3 -12 -4 -19 -1 -8 3 -5 6 6
6 11 1 17 -2 13 -5z m1752 -69 c1 -39 -20 -79 -43 -83 -16 -3 -16 -2 3 17 16
16 21 34 22 79 0 41 3 51 9 37 5 -11 9 -33 9 -50z m-739 14 c0 -6 -4 -7 -10
-4 -5 3 -10 11 -10 16 0 6 5 7 10 4 6 -3 10 -11 10 -16z m-780 1 c0 -5 -1 -10
-3 -10 -2 0 -30 -5 -63 -10 -118 -20 -126 -21 -120 -12 3 5 35 12 71 15 36 4
73 11 83 16 22 13 32 13 32 1z m89 -35 c0 -5 -4 -3 -9 5 -5 8 -9 22 -9 30 0
16 17 -16 18 -35z m661 -20 c0 -8 -2 -15 -4 -15 -2 0 -6 7 -10 15 -3 8 -1 15
4 15 6 0 10 -7 10 -15z m-926 -88 c-3 -9 -15 -22 -26 -28 -16 -9 -19 -8 -15 3
3 7 11 33 18 58 l13 45 8 -30 c4 -17 5 -38 2 -48z m846 58 c0 -8 -2 -15 -4
-15 -2 0 -6 7 -10 15 -3 8 -1 15 4 15 6 0 10 -7 10 -15z m32 -20 c3 -13 1 -22
-3 -19 -9 5 -13 44 -5 44 2 0 6 -11 8 -25z m-500 -77 c-7 -7 -12 -8 -12 -2 0
6 3 14 7 17 3 4 9 5 12 2 2 -3 -1 -11 -7 -17z m428 -81 c-23 -50 -54 -86 -74
-87 -6 0 0 10 13 21 14 13 21 29 18 40 -3 11 -1 19 4 19 5 0 9 7 9 16 0 8 5
12 10 9 6 -3 10 0 10 7 0 16 21 40 29 33 2 -3 -6 -29 -19 -58z m-310 -33 c0
-3 -7 -1 -16 6 -13 11 -16 10 -21 -8 -9 -35 -18 -25 -20 22 l-2 44 30 -29 c16
-15 29 -31 29 -35z m-465 36 c-3 -5 -15 -10 -26 -10 -11 0 -17 5 -14 10 3 6
15 10 26 10 11 0 17 -4 14 -10z m1209 -4 c24 -12 24 -14 8 -18 -12 -3 -23 2
-31 13 -13 23 -11 23 23 5z m-1105 -38 c-30 -44 -29 -43 -29 -31 0 11 38 63
46 63 3 0 -5 -15 -17 -32z m291 24 c0 -8 -121 -64 -127 -58 -4 3 108 65 120
66 4 0 7 -3 7 -8z m-325 -12 c3 -5 2 -10 -4 -10 -5 0 -13 5 -16 10 -3 6 -2 10
4 10 5 0 13 -4 16 -10z m-30 -42 c0 -21 -3 -38 -7 -38 -5 0 -8 7 -8 15 0 8 -3
15 -7 15 -5 0 -16 12 -27 26 l-18 25 33 -3 c32 -3 34 -5 34 -40z m-70 12 c-3
-5 -17 -10 -31 -10 -13 0 -24 5 -24 10 0 6 14 10 31 10 17 0 28 -4 24 -10z
m195 0 c0 -11 -2 -11 -37 -15 -21 -2 -29 5 -19 16 10 9 56 8 56 -1z m1104 -49
c-3 -3 -15 6 -27 18 l-22 24 27 -19 c14 -10 24 -21 22 -23z m-1294 19 c0 -5
-12 -10 -27 -9 l-28 1 25 8 c14 4 26 8 28 9 1 1 2 -3 2 -9z m430 -52 c-1 -35
-3 -40 -11 -25 -10 17 -5 67 6 67 3 0 5 -19 5 -42z m298 -1 c-12 -35 -36 -67
-51 -67 -5 0 3 20 17 44 30 51 33 64 11 46 -9 -8 -15 -8 -15 -2 0 12 20 21 37
15 8 -3 9 -13 1 -36z m611 2 c13 -11 22 -21 20 -24 -3 -2 -18 7 -34 20 -17 13
-25 24 -20 24 6 0 21 -9 34 -20z m-946 -20 c-6 -6 -9 -18 -6 -25 4 -10 -4 -14
-25 -14 -17 0 -34 -5 -38 -12 -5 -8 -1 -9 12 -4 12 4 8 -3 -11 -19 -20 -17
-26 -28 -17 -31 6 -3 9 -10 6 -16 -4 -6 -8 -31 -10 -56 -3 -46 -24 -85 -24
-46 -1 10 -15 35 -32 54 -17 19 -27 28 -23 20 5 -8 15 -23 23 -33 32 -36 0
-29 -41 10 -57 55 -81 67 -108 53 -11 -7 -23 -9 -26 -6 -9 8 55 33 107 41 25
3 54 9 65 12 l20 6 -20 8 c-18 7 -18 8 5 9 14 1 32 2 42 1 9 -1 19 3 23 8 4 7
-1 8 -12 4 -10 -3 -15 -3 -12 1 4 4 16 8 27 11 11 2 33 10 49 19 34 18 41 20
26 5z m997 -19 c0 -5 -2 -10 -4 -10 -3 0 -8 5 -11 10 -3 6 -1 10 4 10 6 0 11
-4 11 -10z m-767 -14 c6 -16 -2 -28 -14 -20 -12 7 -11 34 0 34 5 0 11 -6 14
-14z m265 -56 c22 -18 23 -40 1 -40 -6 0 -7 5 -3 11 4 7 -4 20 -17 30 -13 10
-19 19 -14 18 6 0 20 -8 33 -19z m-735 -51 c24 -12 56 -48 57 -63 0 -5 -3 -7
-6 -4 -3 4 -21 0 -39 -8 -19 -8 -42 -14 -52 -14 -17 1 -17 1 0 14 9 7 17 17
17 21 0 5 -3 5 -7 2 -3 -4 -14 5 -23 21 -24 38 5 55 53 31z m587 -9 c0 -11 7
-20 15 -20 8 0 15 -9 15 -20 0 -11 -4 -20 -10 -20 -5 0 -10 -9 -10 -19 0 -15
5 -18 22 -13 19 5 20 6 4 12 -16 5 -16 7 -3 18 13 11 19 8 37 -19 20 -27 22
-39 17 -100 -8 -92 -16 -101 -39 -43 -11 27 -24 57 -29 67 -6 11 -6 17 1 17 5
0 10 8 10 18 0 14 -2 15 -10 2 -8 -13 -10 -12 -10 3 0 10 -10 22 -22 27 -13 5
-18 9 -12 9 18 1 26 31 8 31 -9 0 -12 -5 -8 -11 4 -7 1 -10 -7 -7 -7 2 -16 18
-20 35 -5 24 -3 30 7 26 8 -3 14 2 14 11 0 9 7 16 15 16 8 0 15 -9 15 -20z
m-660 -18 c0 -4 -9 -13 -19 -19 -19 -12 -19 -14 -4 -43 19 -40 12 -48 -18 -18
l-24 24 20 32 c18 28 45 43 45 24z m865 -2 c3 -5 1 -10 -4 -10 -6 0 -11 5 -11
10 0 6 2 10 4 10 3 0 8 -4 11 -10z m55 -25 c44 -23 61 -65 58 -138 l-3 -62
-15 59 c-8 36 -26 73 -43 93 -16 18 -26 33 -22 33 4 0 2 7 -5 15 -16 19 -7 19
30 0z m-7 -74 c-4 -4 -11 -10 -15 -15 -5 -5 -8 3 -8 19 0 24 2 26 15 15 9 -7
12 -16 8 -19z m-986 -23 c-3 -7 -5 -2 -5 12 0 14 2 19 5 13 2 -7 2 -19 0 -25z
m733 -31 c0 -12 0 -11 -24 28 l-17 30 20 -24 c12 -13 21 -28 21 -34z m-710 8
c-13 -14 -27 -25 -32 -25 -9 0 42 49 51 50 3 0 -6 -11 -19 -25z m-299 -12 c-8
-15 -10 -15 -11 -2 0 17 10 32 18 25 2 -3 -1 -13 -7 -23z m46 -5 c-6 -18 -12
-34 -13 -36 -1 -1 -9 0 -18 4 -15 6 -14 10 10 35 15 16 29 29 30 29 1 0 -3
-15 -9 -32z m60 -12 c-12 -18 -13 -26 -4 -36 10 -10 8 -12 -6 -6 -10 3 -24 6
-30 6 -6 0 2 14 18 30 35 36 43 38 22 6z m-145 2 c-5 -7 -12 -22 -15 -33 -5
-20 -5 -20 -6 1 0 11 4 25 11 32 16 16 23 15 10 0z m181 -38 c-5 -19 -23 -39
-23 -25 0 9 20 45 24 45 2 0 2 -9 -1 -20z m-123 -11 c0 -5 -7 -12 -16 -16 -19
-7 -38 18 -22 28 14 9 38 0 38 -12z m56 -10 c3 -6 1 -16 -5 -22 -9 -9 -14 -8
-21 3 -9 15 -4 30 10 30 5 0 12 -5 16 -11z m-73 -72 c-3 -5 -11 4 -19 18 -20
38 -17 45 5 15 11 -13 17 -28 14 -33z m137 38 c0 -8 -7 -15 -15 -15 -8 0 -15
7 -15 15 0 8 7 15 15 15 8 0 15 -7 15 -15z m48 -47 c-6 -18 -28 -21 -28 -4 0
9 7 16 16 16 9 0 14 -5 12 -12z m-158 -53 c0 -5 -5 -3 -10 5 -5 8 -10 20 -10
25 0 6 5 3 10 -5 5 -8 10 -19 10 -25z m257 -21 c-3 -3 -12 -4 -19 -1 -8 3 -5
6 6 6 11 1 17 -2 13 -5z m38 -14 c3 -5 2 -17 -3 -26 -8 -14 -10 -12 -14 10 -5
26 5 35 17 16z m805 -78 c0 -1 -6 3 -13 9 -7 7 -14 26 -15 43 -1 29 -1 29 13
-9 8 -22 15 -41 15 -43z m-610 18 c14 -11 19 -20 13 -20 -8 0 -2 -18 16 -47
16 -27 33 -61 36 -78 9 -37 71 -163 93 -189 16 -18 16 -19 0 -13 -14 5 -18 1
-18 -16 0 -28 10 -41 35 -52 18 -7 16 -9 -12 -17 -34 -9 -42 -25 -21 -46 9 -9
8 -12 -4 -12 -16 0 -28 28 -28 64 0 15 3 16 14 7 12 -10 13 -8 9 9 -3 11 -9
23 -14 26 -5 3 -9 19 -9 36 0 19 -30 90 -80 185 -86 167 -95 214 -30 163z
m725 -50 c-10 -11 -21 -17 -24 -14 -3 3 3 12 13 20 28 20 32 17 11 -6z m-1150
-52 c5 -5 2 -8 -7 -8 -9 0 -26 9 -39 20 l-24 20 30 -12 c17 -6 34 -15 40 -20z
m-25 -26 c-12 -4 -50 17 -50 28 0 5 13 1 30 -8 16 -9 25 -18 20 -20z m1189 -5
c1 -5 -3 -5 -9 -2 -5 3 -10 16 -9 28 0 21 1 21 9 2 5 -11 9 -24 9 -28z m-415
8 c-4 -8 -8 -15 -10 -15 -2 0 -4 7 -4 15 0 8 4 15 10 15 5 0 7 -7 4 -15z
m-710 -60 c14 -14 19 -25 13 -25 -7 0 -29 16 -48 36 -25 27 -28 33 -12 25 13
-6 34 -23 47 -36z m525 -30 c0 -5 -4 -3 -9 5 -5 8 -9 22 -9 30 0 16 17 -16 18
-35z m621 -21 c0 -8 -4 -12 -10 -9 -5 3 -10 13 -10 21 0 8 5 12 10 9 6 -3 10
-13 10 -21z m-592 -39 c-3 -3 -9 2 -12 12 -6 14 -5 15 5 6 7 -7 10 -15 7 -18z
m677 15 c3 -5 1 -10 -4 -10 -6 0 -11 5 -11 10 0 6 2 10 4 10 3 0 8 -4 11 -10z
m-88 -62 c-2 -13 -4 -5 -4 17 -1 22 1 32 4 23 2 -10 2 -28 0 -40z m123 24 c0
-13 -2 -14 -8 -4 -5 7 -16 10 -28 6 -18 -6 -18 -6 1 9 23 17 35 14 35 -11z
m-60 -22 c0 -5 -5 -10 -11 -10 -5 0 -7 5 -4 10 3 6 8 10 11 10 2 0 4 -4 4 -10z
m83 -58 c9 -11 7 -17 -8 -28 -18 -14 -18 -15 2 -43 30 -40 47 -106 33 -129
-10 -15 -10 -14 -5 4 4 14 -9 48 -35 98 -22 42 -38 82 -34 87 4 6 0 15 -7 20
-10 6 -5 8 14 7 16 -2 33 -9 40 -16z m-146 -49 c-3 -10 -5 -2 -5 17 0 19 2 27
5 18 2 -10 2 -26 0 -35z m-17 27 c0 -5 -5 -10 -11 -10 -5 0 -7 5 -4 10 3 6 8
10 11 10 2 0 4 -4 4 -10z m30 -64 c0 -19 -27 -28 -34 -11 -3 9 0 12 10 8 7 -3
14 0 14 6 0 6 2 11 5 11 3 0 5 -6 5 -14z m-598 -76 c3 -20 0 -30 -8 -30 -18 0
-26 17 -19 40 9 29 22 24 27 -10z m478 -19 c0 -29 -1 -29 -59 -33 -57 -3 -60
-2 -64 22 -3 14 -3 28 -1 31 2 4 31 7 64 8 60 1 60 0 60 -28z m341 -145 c19
-20 8 -25 -19 -9 -29 17 -60 73 -40 73 5 0 7 10 3 23 -3 12 6 0 20 -28 15 -27
31 -54 36 -59z m-127 25 c3 -5 -5 -11 -19 -13 -17 -4 -25 -1 -25 8 0 15 36 19
44 5z m69 -42 c26 -30 15 -34 -13 -4 -13 14 -19 25 -14 25 5 0 18 -9 27 -21z
m52 -29 c3 -5 -1 -10 -9 -10 -9 0 -16 5 -16 10 0 6 4 10 9 10 6 0 13 -4 16
-10z m15 -41 c0 -14 -17 -10 -23 5 -4 10 -1 13 9 9 7 -3 14 -9 14 -14z m-121
-19 c9 0 22 5 29 12 16 16 35 -3 26 -26 -5 -13 -13 -16 -38 -10 -41 9 -46 12
-45 32 0 11 3 12 6 5 2 -7 12 -13 22 -13z m81 -31 c0 -6 -5 -20 -12 -32 -10
-20 -10 -21 6 -8 23 19 29 9 15 -23 -16 -34 -24 -33 -43 6 -15 29 -15 33 0 50
19 20 34 24 34 7z"/>
<path d="M1760 5001 c0 -7 12 -17 28 -24 30 -13 41 -37 17 -37 -8 0 -15 -4
-15 -10 0 -14 16 -12 32 4 27 29 49 58 46 61 -2 2 -27 7 -56 11 -37 5 -52 3
-52 -5z m65 -11 c8 -13 -15 -13 -35 0 -12 8 -11 10 7 10 12 0 25 -4 28 -10z"/>
<path d="M1110 4160 c0 -5 7 -7 15 -4 8 4 15 8 15 10 0 2 -7 4 -15 4 -8 0 -15
-4 -15 -10z"/>
<path d="M2220 4051 c0 -5 7 -11 14 -14 10 -4 13 -1 9 9 -6 15 -23 19 -23 5z"/>
<path d="M1765 3459 c5 -14 4 -19 -4 -15 -6 4 -18 3 -27 -2 -11 -6 0 -13 43
-25 85 -24 121 -28 129 -15 5 7 2 9 -9 5 -9 -3 -19 -2 -23 4 -3 6 -12 8 -20 5
-7 -3 -16 -1 -20 5 -3 6 -13 8 -21 5 -9 -4 -13 -1 -11 6 5 13 -21 48 -35 48
-5 0 -5 -10 -2 -21z"/>
<path d="M1415 3406 c-13 -9 -16 -18 -10 -32 8 -18 9 -17 12 4 5 24 18 29 29
10 4 -7 3 -8 -4 -4 -14 8 -15 -3 -3 -23 11 -17 39 -8 48 15 6 17 -20 44 -42
44 -6 0 -20 -6 -30 -14z"/>
<path d="M1375 3240 c-15 -6 -16 -9 -4 -9 9 -1 20 -11 26 -23 6 -15 12 -18 17
-10 4 7 2 12 -6 12 -9 0 -9 3 2 10 13 9 13 10 0 10 -13 0 -13 1 0 10 13 9 13
10 0 9 -8 0 -24 -4 -35 -9z"/>
<path d="M852 3503 c-18 -15 -19 -20 -8 -30 11 -9 18 -8 32 8 16 18 8 27 -12
12 -5 -5 -1 0 9 10 11 9 15 17 9 17 -5 0 -19 -8 -30 -17z"/>
<path d="M940 3510 c20 -13 33 -13 25 0 -3 6 -14 10 -23 10 -15 0 -15 -2 -2
-10z"/>
<path d="M947 3394 c-4 -4 -7 -17 -7 -28 0 -19 1 -19 17 -3 12 11 14 20 7 27
-6 6 -13 7 -17 4z"/>
<path d="M959 3343 c-13 -15 -12 -15 9 -4 23 12 28 21 13 21 -5 0 -15 -7 -22
-17z"/>
<path d="M2673 3265 c0 -8 4 -12 9 -9 4 3 8 9 8 15 0 5 -4 9 -8 9 -5 0 -9 -7
-9 -15z"/>
<path d="M2276 2838 c3 -13 13 -30 20 -39 8 -8 14 -23 14 -32 0 -9 5 -17 11
-17 5 0 8 3 6 8 -2 4 -13 28 -25 55 -23 49 -38 64 -26 25z"/>
<path d="M2330 2731 c0 -5 5 -11 11 -13 6 -2 11 -22 11 -43 0 -33 2 -36 9 -18
9 24 -7 83 -22 83 -5 0 -9 -4 -9 -9z"/>
<path d="M2392 2656 c3 -56 5 -60 33 -69 17 -5 55 -27 85 -48 64 -45 79 -49
57 -15 -12 18 -13 26 -4 37 7 8 3 6 -7 -3 -12 -11 -22 -13 -30 -7 -6 5 -20 17
-31 25 -17 13 -17 15 -2 10 12 -4 16 -2 11 6 -16 25 -50 60 -68 70 -17 9 -18
7 -14 -16 3 -14 1 -23 -3 -20 -5 3 -9 17 -9 32 0 15 -5 34 -10 42 -7 11 -10
-2 -8 -44z"/>
<path d="M2205 2580 c3 -5 8 -10 11 -10 2 0 4 5 4 10 0 6 -5 10 -11 10 -5 0
-7 -4 -4 -10z"/>
<path d="M2236 2539 c6 -11 65 -39 81 -39 12 0 -32 29 -62 40 -19 7 -24 7 -19
-1z"/>
<path d="M2047 2439 c7 -7 15 -10 18 -7 3 3 -2 9 -12 12 -14 6 -15 5 -6 -5z"/>
<path d="M2111 2309 c13 -8 97 -13 88 -5 -2 2 -26 6 -53 9 -30 3 -43 1 -35 -4z"/>
<path d="M2080 2252 c0 -15 49 -52 69 -52 13 1 12 3 -4 12 -11 6 -30 20 -42
31 -13 11 -23 16 -23 9z"/>
<path d="M1706 2690 c4 -25 10 -53 16 -62 5 -11 5 -18 0 -18 -6 0 -13 10 -16
23 -6 20 -7 21 -20 5 -7 -10 -17 -14 -21 -10 -4 4 -2 -4 5 -18 19 -37 56 -57
43 -24 -5 14 -3 15 17 4 20 -11 22 -10 17 4 -19 45 -18 50 3 26 18 -21 20 -21
11 -4 -6 12 -7 24 -4 28 4 3 -5 19 -19 34 -14 15 -28 34 -32 42 -3 8 -3 -5 0
-30z m-15 -77 c-12 -20 -14 -14 -5 12 4 9 9 14 11 11 3 -2 0 -13 -6 -23z"/>
<path d="M1680 2695 c0 -5 5 -17 10 -25 5 -8 10 -10 10 -5 0 6 -5 17 -10 25
-5 8 -10 11 -10 5z"/>
<path d="M1611 2654 c0 -11 3 -14 6 -6 3 7 2 16 -1 19 -3 4 -6 -2 -5 -13z"/>
<path d="M1546 2644 c-4 -9 -4 -19 -1 -22 2 -3 7 3 11 12 4 9 4 19 1 22 -2 3
-7 -3 -11 -12z"/>
<path d="M1750 2439 c0 -5 5 -7 10 -4 6 3 10 8 10 11 0 2 -4 4 -10 4 -5 0 -10
-5 -10 -11z"/>
<path d="M1920 1085 c0 -8 6 -15 13 -15 8 0 14 7 14 15 0 8 -6 15 -14 15 -7 0
-13 -7 -13 -15z"/>
</g>
</svg>
